<?xml version="1.0" encoding="utf-8"?>
<!-- Generator: Adobe Illustrator 18.1.1, SVG Export Plug-In . SVG Version: 6.00 Build 0)  -->
<svg version="1.1" id="Layer_1" xmlns="http://www.w3.org/2000/svg" xmlns:xlink="http://www.w3.org/1999/xlink" x="0px" y="0px"
	 viewBox="0 0 456.2 119" enable-background="new 0 0 456.2 119" xml:space="preserve">
<g>
	<g>
		<g>
			<g>
				<path fill="#E34F26" d="M59.5,119C26.7,119,0,92.3,0,59.5S26.7,0,59.5,0S119,26.7,119,59.5S92.3,119,59.5,119z M59.5,8.2
					c-28.3,0-51.3,23-51.3,51.3s23,51.3,51.3,51.3s51.3-23,51.3-51.3S87.8,8.2,59.5,8.2z"/>
			</g>
		</g>
		<path fill="#E34F26" d="M79.5,25C79.5,25,79.5,25,79.5,25L79.5,25c-11.4-0.1-21.2,14.7-24.4,29.7h-8.6v7H54
			c-1.7,7.8-5.9,14.6-7.4,16.6c-0.7,0.7-1.6,1.9-0.8-0.4c1.2-6.3-4.4-10.7-10.2-10.7c-5.3,0-11.9,4.1-11.9,11.9s7,12.3,13.2,12.3
			c4.8,0,7.8-1.8,9.5-2.8c1.7-1,4.1-2.5,6.9-5.8c4.7-5.5,8.1-13.1,9.2-21.2h9.4v-7h-8.2c1.1-4.5,3.6-10.2,5.6-13.3
			c0.5-0.8,0.8-1.1,0.8,0.2C70,43.5,73,49,79.5,49s12-5.4,12-12S86.1,25,79.5,25z M32.2,83.6c-2.4-1.4-3.2-4.6-1.7-7.2
			c1.5-2.6,4.7-3.5,7.1-2.1c2.4,1.4,3.2,4.6,1.7,7.2C37.8,84.1,34.6,85.1,32.2,83.6z M78.1,41.5c-2.2-1.3-3-4.3-1.6-6.6
			c1.4-2.4,4.3-3.2,6.5-1.9c2.2,1.3,3,4.3,1.6,6.6C83.3,42,80.3,42.8,78.1,41.5z"/>
	</g>
	<g>
		<path fill="#1E252B" d="M150.2,56.9h15.7v8h-15.7V86H141V36H174v8.4h-23.8V56.9z"/>
		<path fill="#1E252B" d="M204.8,78.1c-4.4,5.9-10.1,9-17.3,9c-9.3,0-17.8-5.9-17.8-18.9c0-11.9,7.2-18.6,17.2-18.6
			c9.4,0,13.2,5.6,14,6.7c2.9,4.1,3.5,10.3,3.6,13.8h-26.2c0.1,5.6,4.5,9.3,10.1,9.3c5.8,0,8.1-4,9.2-5.4L204.8,78.1z M196.7,63.8
			c-0.8-5.5-5-7.8-8.7-7.8c-4.5,0-8.4,3-9.4,7.8H196.7z"/>
		<path fill="#1E252B" d="M218.4,44.5V86h-8.6V44.5H218.4z"/>
		<path fill="#1E252B" d="M234.7,44.5V86h-8.6V44.5H234.7z"/>
		<path fill="#1E252B" d="M259.5,86c2.5,0.7,5.4,1.1,8.4,1.1c9.2,0,20-4.2,20-15.9c0-9.9-7.7-13-15.2-14.7l-5-1.2
			c-4.3-0.9-8.8-1.7-8.8-6.1c0-4.1,4.6-6.3,9.2-6.3c7.5,0,10.7,4.7,12.4,7.3l6.9-5.5c-4.7-6.6-10.9-9.9-18.8-9.9
			c-11.1,0-18.6,6.2-18.6,15.4c0,7.6,4.9,10.8,7.9,12.1c1.3,0.6,15.5,4,17.1,4.6c1.7,0.6,3.8,2,3.8,5.2c0,1.9-0.7,4.4-4.2,5.9
			c-1.8,0.8-3.7,0.9-5.2,0.9c-9.8,0-13.5-5.4-14.8-7.5l-7.1,5.3C250.7,82.3,255.8,84.8,259.5,86z"/>
		<path fill="#1E252B" d="M330.2,50.6h8.5L328.5,86h-8.1l-6.1-22.6L307.7,86h-8l-9.9-35.4h8.5l5.9,24.2l6.3-24.2h7.3l6.3,24.2
			L330.2,50.6z"/>
		<path fill="#1E252B" d="M357.8,87.1c-11.1,0-18.4-8.1-18.4-18.9s7.5-18.6,18.1-18.6c9.8,0,18.3,6.9,18.3,18.6
			C375.8,79.2,368.5,87.1,357.8,87.1z M357.4,57.2c-5.3,0-9.1,4.3-9.1,10.8c0,7.3,4.5,11.3,9.6,11.3c6.2,0,9.3-5.4,9.1-11.3
			C366.7,62.2,363.3,57.2,357.4,57.2z"/>
		<path fill="#1E252B" d="M398.6,87.1c-11.1,0-18.4-8.1-18.4-18.9s7.5-18.6,18.1-18.6c9.8,0,18.3,6.9,18.3,18.6
			C416.6,79.2,409.3,87.1,398.6,87.1z M398.1,57.2c-5.3,0-9.1,4.3-9.1,10.8c0,7.3,4.5,11.3,9.6,11.3c6.2,0,9.3-5.4,9.1-11.3
			C407.5,62.2,404.1,57.2,398.1,57.2z"/>
		<path fill="#1E252B" d="M422,50.6h8.4v3.3c1.3-1.4,4.2-4.3,9.7-4.3c10.4,0,16.1,9.4,16.1,19.1c0,10.6-6.6,18.4-16.1,18.4
			c-4.9,0-7.9-2.3-9.7-4v17.4H422V50.6z M439,79.1c4.1,0,8.6-2.8,8.6-10.8c0-8.9-6.2-10.6-8.7-10.6c-3.9,0-8.4,2.8-8.5,10.4
			C430.2,75.4,434.3,79.1,439,79.1z"/>
	</g>
</g>
</svg>
